HIERARCHY
ROOT hip
{
  OFFSET 0 0 0
  CHANNELS 6 Xposition Yposition Zposition Zrotation Yrotation Xrotation
  JOINT abdomen
  {
    OFFSET 0 20.6881 -0.73152
    CHANNELS 3 Zrotation Xrotation Yrotation
    JOINT chest
    {
      OFFSET 0 11.7043 -0.48768
      CHANNELS 3 Zrotation Xrotation Yrotation
      JOINT neck
      {
        OFFSET 0 22.1894 -2.19456
        CHANNELS 3 Zrotation Xrotation Yrotation
        JOINT head
        {
          OFFSET -0.24384 7.07133 1.2192
          CHANNELS 3 Zrotation Xrotation Yrotation
          JOINT leftEye
          {
            OFFSET 4.14528 8.04674 8.04672
            CHANNELS 3 Zrotation Xrotation Yrotation
            End Site
            {
              OFFSET 1 0 0
            }
          }
          JOINT rightEye
          {
            OFFSET -3.6576 8.04674 8.04672
            CHANNELS 3 Zrotation Xrotation Yrotation
            End Site
            {
              OFFSET 1 0 0
            }
          }
        }
      }
      JOINT rCollar
      {
        OFFSET -2.68224 19.2634 -4.8768
        CHANNELS 3 Zrotation Xrotation Yrotation
        JOINT rShldr
        {
          OFFSET -8.77824 -1.95073 1.46304
          CHANNELS 3 Zrotation Xrotation Yrotation
          JOINT rForeArm
          {
            OFFSET -28.1742 -1.7115 0.48768
            CHANNELS 3 Zrotation Xrotation Yrotation
            JOINT rHand
            {
              OFFSET -22.5879 0.773209 7.07136
              CHANNELS 3 Zrotation Xrotation Yrotation
              JOINT rThumb1
              {
                OFFSET -1.2192 -0.487915 3.41376
                CHANNELS 3 Zrotation Xrotation Yrotation
                JOINT rThumb2
                {
                  OFFSET -3.37035 -0.52449 3.41376
                  CHANNELS 3 Zrotation Xrotation Yrotation
                  End Site
                  {
                    OFFSET -1.78271 -1.18214 1.43049
                  }
                }
              }
              JOINT rIndex1
              {
                OFFSET -7.75947 0.938293 5.60832
                CHANNELS 3 Zrotation Xrotation Yrotation
                JOINT rIndex2
                {
                  OFFSET -2.54057 -0.884171 1.56538
                  CHANNELS 3 Zrotation Xrotation Yrotation
                  End Site
                  {
                    OFFSET -1.62519 -0.234802 1.16502
                  }
                }
              }
              JOINT rMid1
              {
                OFFSET -8.24714 1.18213 3.41376
                CHANNELS 3 Zrotation Xrotation Yrotation
                JOINT rMid2
                {
                  OFFSET -3.10165 -0.590103 1.0647
                  CHANNELS 3 Zrotation Xrotation Yrotation
                  End Site
                  {
                    OFFSET -2.48547 -0.328903 0.83742
                  }
                }
              }
              JOINT rRing1
              {
                OFFSET -8.82822 0.546677 1.51678
                CHANNELS 3 Zrotation Xrotation Yrotation
                JOINT rRing2
                {
                  OFFSET -2.60934 -0.819778 -0.0198488
                  CHANNELS 3 Zrotation Xrotation Yrotation
                  End Site
                  {
                    OFFSET -2.33842 -0.294052 0.168128
                  }
                }
              }
              JOINT rPinky1
              {
                OFFSET -8.27202 -0.0477905 -0.4584
                CHANNELS 3 Zrotation Xrotation Yrotation
                JOINT rPinky2
                {
                  OFFSET -1.82734 -0.647385 -0.700984
                  CHANNELS 3 Zrotation Xrotation Yrotation
                  End Site
                  {
                    OFFSET -1.69225 -0.51767 -0.607171
                  }
                }
              }
            }
          }
        }
      }
      JOINT lCollar
      {
        OFFSET 2.68224 19.2634 -4.8768
        CHANNELS 3 Zrotation Xrotation Yrotation
        JOINT lShldr
        {
          OFFSET 8.77824 -1.95073 1.46304
          CHANNELS 3 Zrotation Xrotation Yrotation
          JOINT lForeArm
          {
            OFFSET 28.1742 -1.7115 0.48768
            CHANNELS 3 Zrotation Xrotation Yrotation
            JOINT lHand
            {
              OFFSET 22.5879 0.773209 7.07136
              CHANNELS 3 Zrotation Xrotation Yrotation
              JOINT lThumb1
              {
                OFFSET 1.2192 -0.487915 3.41376
                CHANNELS 3 Zrotation Xrotation Yrotation
                JOINT lThumb2
                {
                  OFFSET 3.37035 -0.52449 3.41376
                  CHANNELS 3 Zrotation Xrotation Yrotation
                  End Site
                  {
                    OFFSET 1.78271 -1.18214 1.43049
                  }
                }
              }
              JOINT lIndex1
              {
                OFFSET 7.75947 0.938293 5.60832
                CHANNELS 3 Zrotation Xrotation Yrotation
                JOINT lIndex2
                {
                  OFFSET 2.54057 -0.884171 1.56538
                  CHANNELS 3 Zrotation Xrotation Yrotation
                  End Site
                  {
                    OFFSET 1.62519 -0.234802 1.16502
                  }
                }
              }
              JOINT lMid1
              {
                OFFSET 8.24714 1.18213 3.41376
                CHANNELS 3 Zrotation Xrotation Yrotation
                JOINT lMid2
                {
                  OFFSET 3.10165 -0.590103 1.0647
                  CHANNELS 3 Zrotation Xrotation Yrotation
                  End Site
                  {
                    OFFSET 2.48547 -0.328903 0.83742
                  }
                }
              }
              JOINT lRing1
              {
                OFFSET 8.82822 0.546677 1.51678
                CHANNELS 3 Zrotation Xrotation Yrotation
                JOINT lRing2
                {
                  OFFSET 2.60934 -0.819778 -0.0198488
                  CHANNELS 3 Zrotation Xrotation Yrotation
                  End Site
                  {
                    OFFSET 2.33842 -0.294052 0.168128
                  }
                }
              }
              JOINT lPinky1
              {
                OFFSET 8.27202 -0.0477905 -0.4584
                CHANNELS 3 Zrotation Xrotation Yrotation
                JOINT lPinky2
                {
                  OFFSET 1.82734 -0.647385 -0.700984
                  CHANNELS 3 Zrotation Xrotation Yrotation
                  End Site
                  {
                    OFFSET 1.69225 -0.51767 -0.607171
                  }
                }
              }
            }
          }
        }
      }
    }
  }
  JOINT rButtock
  {
    OFFSET -8.77824 4.35084 1.2192
    CHANNELS 3 Zrotation Xrotation Yrotation
    JOINT rThigh
    {
      OFFSET 0 -1.70687 -2.19456
      CHANNELS 3 Zrotation Xrotation Yrotation
      JOINT rShin
      {
        OFFSET 0 -36.8199 0.73152
        CHANNELS 3 Zrotation Xrotation Yrotation
        JOINT rFoot
        {
          OFFSET 0.73152 -45.1104 -5.12064
          CHANNELS 3 Zrotation Xrotation Yrotation
          End Site
          {
            OFFSET -1.1221 -3.69964 12.103
          }
        }
      }
    }
  }
  JOINT lButtock
  {
    OFFSET 8.77824 4.35084 1.2192
    CHANNELS 3 Zrotation Xrotation Yrotation
    JOINT lThigh
    {
      OFFSET 0 -1.70687 -2.19456
      CHANNELS 3 Zrotation Xrotation Yrotation
      JOINT lShin
      {
        OFFSET 0 -36.8199 0.73152
        CHANNELS 3 Zrotation Xrotation Yrotation
        JOINT lFoot
        {
          OFFSET -0.73152 -45.1104 -5.12064
          CHANNELS 3 Zrotation Xrotation Yrotation
          End Site
          {
            OFFSET 1.1221 -3.69964 12.103
          }
        }
      }
    }
  }
}
MOTION
Frames:	4
Frame Time:	0.00833333
-4.02226 84.2564 38.5267 0.0 0.0 0.0 -1.24151 -0.00398118 -0.0340789 -0.342494 -0.00249263 -0.0593272 5.73196e-15 0.0 -3.72721e-17 1.7462e-14 3.18055e-15 -1.38217e-16 -0.0 0.0 0.0 -0.0 0.0 0.0 2.98048e-15 -1.04828e-17 9.93923e-17 6.24114e-14 -1.86361e-16 7.95139e-16 1.0216e-12 -3.13881e-13 -4.45278e-14 1.16937e-11 2.67912e-13 -6.67917e-14 2.75731e-11 -1.02557e-13 -2.22639e-13 4.75998e-11 -1.78111e-13 -4.0075e-13 2.75762e-11 -9.97899e-14 -2.44903e-13 7.73091 5.47488 0.417314 2.75739e-11 -1.02374e-13 -2.25819e-13 2.90554 0.965183 0.102902 2.75795e-11 -1.02374e-13 -2.25819e-13 10.2786 0.731801 0.0259123 2.75716e-11 -1.02175e-13 -2.16278e-13 2.22167 -0.733487 -0.20892 2.88385e-15 -9.70628e-18 -1.98785e-16 5.88846e-14 -1.11816e-16 -1.19271e-15 1.02637e-12 2.96189e-13 0.0 1.16976e-11 -3.475e-13 -9.22361e-14 2.75967e-11 -1.12395e-13 -2.22639e-13 4.7665e-11 -1.94014e-13 -3.82462e-13 2.75901e-11 -1.10524e-13 -2.13097e-13 -7.73091 5.47488 -0.417314 2.75965e-11 -1.11717e-13 -2.25819e-13 -2.90554 0.965183 -0.102902 2.75884e-11 -1.11717e-13 -2.26615e-13 -10.2786 0.731801 -0.0259123 2.7603e-11 -1.10524e-13 -2.35361e-13 -2.22167 -0.733487 0.20892 -2.03217e-16 0.0 -3.88251e-19 -0.453815 -1.92099 -0.00952753 -0.00915579 -2.07857 -0.0755538 -0.487479 3.99699 0.136657 2.03217e-16 0.0 3.88251e-19 -1.43726 -5.97115 0.129661 -0.00126436 5.25796 -0.045415 0.5078 0.710742 -0.0722722
-6.24518 83.8822 37.9024 -4.2485 -4.0198 0.5948 -0.284024 0.214314 0.74299 -0.260546 -0.44785 0.17468 0.564252 1.40743 -0.0945324 -0.156147 -0.189141 -0.29586 -0.0 0.0 0.0 -0.0 0.0 0.0 -3.69175e-14 -9.49252e-16 2.39089e-14 22.9831 8.91206 -3.01296 -6.14606 -3.32459 8.95077 0.0439973 4.65568 0.646536 7.01446e-11 -2.4978e-10 2.40862e-10 1.24232e-10 -4.33737e-10 4.15575e-10 7.01491e-11 -2.49777e-10 2.40839e-10 7.73091 5.47488 0.417314 7.01468e-11 -2.49783e-10 2.4086e-10 2.90554 0.965183 0.102902 7.01516e-11 -2.4978e-10 2.40858e-10 10.2786 0.731801 0.0259123 7.01434e-11 -2.4978e-10 2.40868e-10 2.22167 -0.733487 -0.20892 -3.70033e-14 -9.50219e-16 2.36255e-14 -23.3667 9.47357 1.68371 5.62539 -2.91639 -8.3597 -0.043976 4.6545 -0.646374 9.95964e-11 3.06555e-10 2.26804e-10 1.74921e-10 5.30911e-10 3.9061e-10 9.95895e-11 3.06556e-10 2.26815e-10 -7.73091 5.47488 -0.417314 9.95969e-11 3.06555e-10 2.26803e-10 -2.90554 0.965183 -0.102902 9.95867e-11 3.06556e-10 2.26799e-10 -10.2786 0.731801 -0.0259123 9.96036e-11 3.06558e-10 2.26791e-10 -2.22167 -0.733487 0.20892 -2.03217e-16 0.0 -3.88251e-19 -6.24085 -2.21848 -0.010684 -0.00640676 -1.68253 -0.0557839 -0.22307 3.89714 0.0963837 2.03217e-16 0.0 3.88251e-19 1.65777 -6.38553 -2.36311 -0.0185304 10.1507 -0.18538 0.77196 -5.13039 4.00758
-6.23319 83.8813 37.9009 -4.2062 -4.0116 0.5993 0.72318 0.445542 1.56389 -0.169171 -0.919664 0.422034 1.16425 2.89627 -0.195243 -0.3236 -0.389508 -0.60978 -0.0 0.0 0.0 -0.0 0.0 0.0 -7.94479e-14 -1.8948e-15 4.92706e-14 48.3442 18.2517 -6.44923 -11.527 -6.56842 18.5076 -0.0251869 9.57254 1.34396 1.12873e-10 -5.11903e-10 4.95981e-10 2.01304e-10 -8.88947e-10 8.55801e-10 1.12879e-10 -5.119e-10 4.95958e-10 7.73091 5.47488 0.417314 1.12877e-10 -5.1191e-10 4.95982e-10 2.90554 0.965183 0.102902 1.12881e-10 -5.11904e-10 4.95978e-10 10.2786 0.731801 0.0259123 1.12872e-10 -5.11904e-10 4.95987e-10 2.22167 -0.733487 -0.20892 -7.95229e-14 -1.89764e-15 4.90035e-14 -48.7085 19.4611 3.62457 10.6568 -5.79247 -17.2656 0.0251833 9.57249 -1.34395 1.73568e-10 6.29663e-10 4.67325e-10 3.05754e-10 1.09053e-09 8.04873e-10 1.73561e-10 6.29663e-10 4.67337e-10 -7.73091 5.47488 -0.417314 1.7357e-10 6.29663e-10 4.67325e-10 -2.90554 0.965183 -0.102902 1.73557e-10 6.29663e-10 4.67319e-10 -10.2786 0.731801 -0.0259123 1.73576e-10 6.29667e-10 4.6731e-10 -2.22167 -0.733487 0.20892 -2.03217e-16 0.0 -3.88251e-19 -12.3586 -2.53293 -0.0119065 -0.00379778 -1.26381 -0.0348953 0.0563156 3.79151 0.0538162 2.03217e-16 0.0 3.88251e-19 4.8907 -6.81094 -5.00349 -0.00989033 15.3232 -0.339633 1.96834 -11.211 8.45048
-6.23175 83.8825 37.9211 -4.206 -3.991 0.5847 1.61319 0.650435 2.29726 -0.0857345 -1.33849 0.642855 1.70672 4.22225 -0.284283 -0.474301 -0.567363 -0.88762 -0.0 0.0 0.0 -0.0 0.0 0.0 -1.16713e-13 -2.82679e-15 7.15279e-14 72.0256 26.4228 -9.9814 -15.417 -9.00182 27.1684 -0.191319 13.9598 1.99206 1.55287e-10 -7.49134e-10 7.2303e-10 2.77496e-10 -1.30085e-09 1.24753e-09 1.55295e-10 -7.49132e-10 7.23007e-10 7.73091 5.47488 0.417314 1.55293e-10 -7.49144e-10 7.23033e-10 2.90554 0.965183 0.102902 1.55296e-10 -7.49136e-10 7.23027e-10 10.2786 0.731801 0.0259123 1.55287e-10 -7.49136e-10 7.23037e-10 2.22167 -0.733487 -0.20892 -1.16778e-13 -2.83125e-15 7.1274e-14 -71.9606 28.3156 5.66147 14.393 -8.00569 -25.3102 0.191216 13.9563 -1.99154 2.43596e-10 9.1989e-10 6.80858e-10 4.29433e-10 1.59312e-09 1.1726e-09 2.43588e-10 9.19888e-10 6.8087e-10 -7.73091 5.47488 -0.417314 2.43598e-10 9.1989e-10 6.8086e-10 -2.90554 0.965183 -0.102902 2.43583e-10 9.1989e-10 6.80851e-10 -10.2786 0.731801 -0.0259123 2.43605e-10 9.19894e-10 6.80842e-10 -2.22167 -0.733487 0.20892 -2.03217e-16 0.0 -3.88251e-19 -17.815 -2.81346 -0.0129993 -0.0017286 -0.890434 -0.0162734 0.305326 3.69744 0.0158669 2.03217e-16 0.0 3.88251e-19 7.73973 -7.17146 -7.36115 0.0230013 19.9357 -0.486119 3.86355 -16.4638 12.6456
